<svg xmlns="http://www.w3.org/2000/svg" width="35.76" height="35.76" viewBox="0 0 35.76 35.76">
  <path id="Path_271" data-name="Path 271" d="M625.473,248.141a17.964,17.964,0,0,1,17.941,0,17.842,17.842,0,0,1,6.51,6.51,17.969,17.969,0,0,1,0,17.94,17.827,17.827,0,0,1-6.51,6.51,17.965,17.965,0,0,1-17.941,0,17.8,17.8,0,0,1-6.51-6.51,17.963,17.963,0,0,1,0-17.94A17.812,17.812,0,0,1,625.473,248.141Zm17.746,6.7a12.387,12.387,0,1,0,3.644,8.775A11.964,11.964,0,0,0,643.219,254.846Zm-8.776,8.775h6v3h-9v-12h3Z" transform="translate(-616.563 -245.741)" fill="#465775"/>
</svg>
