<svg xmlns="http://www.w3.org/2000/svg" xmlns:xlink="http://www.w3.org/1999/xlink" width="63.141" height="63.218" viewBox="0 0 63.141 63.218">
  <defs>
    <linearGradient id="linear-gradient" y1="0.5" x2="1" y2="0.5" gradientUnits="objectBoundingBox">
      <stop offset="0" stop-color="#f0f0f0" stop-opacity="0.4"/>
      <stop offset="1" stop-color="#f0f0f0"/>
    </linearGradient>
    <linearGradient id="linear-gradient-2" y1="0.5" x2="1" y2="0.5" gradientUnits="objectBoundingBox">
      <stop offset="0" stop-color="#ffba00"/>
      <stop offset="1" stop-color="#cdba31"/>
    </linearGradient>
    <linearGradient id="linear-gradient-4" x1="21.022" y1="2.908" x2="22.022" y2="2.908" gradientUnits="objectBoundingBox">
      <stop offset="0" stop-color="#ffba00" stop-opacity="0"/>
      <stop offset="1" stop-color="#f0f0f0"/>
    </linearGradient>
    <linearGradient id="linear-gradient-5" y1="0.5" x2="1" y2="0.5" gradientUnits="objectBoundingBox">
      <stop offset="0" stop-color="#bc631b"/>
      <stop offset="0.217" stop-color="#b5601c"/>
      <stop offset="0.514" stop-color="#a45a21"/>
      <stop offset="0.855" stop-color="#874f28"/>
      <stop offset="1" stop-color="#794a2c"/>
    </linearGradient>
    <linearGradient id="linear-gradient-19" y1="0.5" x2="1" y2="0.5" gradientUnits="objectBoundingBox">
      <stop offset="0" stop-color="#bc631b"/>
      <stop offset="1" stop-color="#6c3715"/>
    </linearGradient>
    <linearGradient id="linear-gradient-20" x1="0.303" y1="0.5" x2="1.303" y2="0.5" gradientUnits="objectBoundingBox">
      <stop offset="0" stop-color="#ffde98" stop-opacity="0"/>
      <stop offset="1" stop-color="#f6e42e"/>
    </linearGradient>
  </defs>
  <g id="Group_278" data-name="Group 278" transform="translate(-5.861 -4.973)">
    <path id="Path_300" data-name="Path 300" d="M66.534,26.053A28.849,28.849,0,0,0,16.593,54.886Z" transform="translate(-3.71 -3.779)" fill="url(#linear-gradient)"/>
    <path id="Path_301" data-name="Path 301" d="M69.026,37.493A30.721,30.721,0,1,1,38.3,6.771,30.722,30.722,0,0,1,69.026,37.493Z" transform="translate(-0.872 -0.911)" fill="url(#linear-gradient-2)"/>
    <path id="Path_302" data-name="Path 302" d="M65.912,24.6A28.849,28.849,0,0,0,15.971,53.428Z" transform="translate(-3.395 -3.041)" fill="url(#linear-gradient)"/>
    <path id="Path_303" data-name="Path 303" d="M11.378,39.416A28.848,28.848,0,1,1,40.226,68.264,28.848,28.848,0,0,1,11.378,39.416Z" transform="translate(-2.794 -2.834)" fill="url(#linear-gradient-4)"/>
    <g id="Group_265" data-name="Group 265" transform="translate(5.861 4.973)">
      <g id="Group_264" data-name="Group 264">
        <g id="Group_263" data-name="Group 263">
          <path id="Path_304" data-name="Path 304" d="M115.525,97.284a1.977,1.977,0,0,0,.48-.3c.093-.075.191-.158.292-.25s.192-.2.287-.31a32.293,32.293,0,0,0,4.092-5.816,4.616,4.616,0,0,0,.418-1.064,28.9,28.9,0,0,0,.615-7.41c-.016-.364-.134-.468-.3-.273a1.811,1.811,0,0,0-.249.464c-.081.2-.153.447-.231.7a29.369,29.369,0,0,1-2.4,6.07,5.1,5.1,0,0,0-.41.97,29.726,29.726,0,0,1-1.111,3.45,30.868,30.868,0,0,1-1.594,3.371C115.235,97.221,115.274,97.379,115.525,97.284Z" transform="translate(-61.294 -43.866)" fill="url(#linear-gradient-5)"/>
          <path id="Path_305" data-name="Path 305" d="M92.308,116.79a3.491,3.491,0,0,0,1.326-.327,32.164,32.164,0,0,0,6.176-3.528,3.908,3.908,0,0,0,.833-.782,31.31,31.31,0,0,0,2.1-3.143,30.157,30.157,0,0,0,1.626-3.293c.141-.338.08-.481-.152-.376a3.842,3.842,0,0,0-.936.848,29.84,29.84,0,0,1-4.755,4.474,4.125,4.125,0,0,0-.787.7,28.792,28.792,0,0,1-5.354,5.018C92.072,116.61,92.04,116.771,92.308,116.79Z" transform="translate(-49.554 -55.792)" fill="url(#linear-gradient-5)"/>
          <path id="Path_306" data-name="Path 306" d="M64.77,127.1a3.184,3.184,0,0,0,1.338.268,32.188,32.188,0,0,0,7.088-.537,3.85,3.85,0,0,0,1.089-.349,28.981,28.981,0,0,0,6.116-4.228c.268-.247.273-.4.02-.405a1.751,1.751,0,0,0-.514.107,5.81,5.81,0,0,0-.694.26,28.822,28.822,0,0,1-6.207,2.011,4.113,4.113,0,0,0-1.011.3,28.971,28.971,0,0,1-6.987,2.241C64.634,126.835,64.536,126.966,64.77,127.1Z" transform="translate(-35.634 -64.17)" fill="url(#linear-gradient-5)"/>
          <path id="Path_307" data-name="Path 307" d="M38.2,124.022a3.153,3.153,0,0,0,1.095.815,31.832,31.832,0,0,0,6.642,2.546,4.846,4.846,0,0,0,1.136.144,29.24,29.24,0,0,0,7.335-1.222c.349-.107.422-.246.193-.357a3.882,3.882,0,0,0-1.251-.184,29.331,29.331,0,0,1-6.474-.831,5.537,5.537,0,0,0-1.041-.158,28.433,28.433,0,0,1-7.275-.952C38.2,123.725,38.051,123.8,38.2,124.022Z" transform="translate(-22.212 -65.148)" fill="url(#linear-gradient-5)"/>
          <path id="Path_308" data-name="Path 308" d="M17.7,105.245a1.991,1.991,0,0,0,.2.528,3.88,3.88,0,0,0,.437.677,32.456,32.456,0,0,0,4.921,5.132,4.432,4.432,0,0,0,.963.617,29.145,29.145,0,0,0,7.149,2.04c.36.057.484-.039.326-.238a1.8,1.8,0,0,0-.406-.336c-.183-.121-.41-.236-.645-.364a29.724,29.724,0,0,1-5.493-3.527,4.945,4.945,0,0,0-.873-.591c-.548-.243-1.064-.538-1.6-.82-.272-.138-.52-.3-.784-.458s-.528-.31-.784-.477l-.765-.514-.386-.261-.372-.276-.751-.564c-.25-.19-.485-.4-.729-.6C17.814,104.972,17.652,104.981,17.7,105.245Z" transform="translate(-11.852 -55.656)" fill="url(#linear-gradient-5)"/>
          <path id="Path_309" data-name="Path 309" d="M7.1,79.5A3.392,3.392,0,0,0,7.16,80.86,31.947,31.947,0,0,0,9.422,87.6a3.833,3.833,0,0,0,.607.97,30.508,30.508,0,0,0,2.681,2.662c.234.2.479.4.716.6s.466.394.719.573c.5.363.969.734,1.482,1.06.305.2.458.169.4-.077a3.87,3.87,0,0,0-.651-1.081A29.39,29.39,0,0,1,11.9,86.78a4.16,4.16,0,0,0-.537-.907,28.582,28.582,0,0,1-3.88-6.227C7.321,79.3,7.17,79.239,7.1,79.5Z" transform="translate(-6.466 -42.639)" fill="url(#linear-gradient-5)"/>
          <path id="Path_310" data-name="Path 310" d="M7.218,51.728a2.04,2.04,0,0,0-.285.493,4.78,4.78,0,0,0-.236.769,31.992,31.992,0,0,0-.835,7.062A4.311,4.311,0,0,0,6,61.186,28.965,28.965,0,0,0,8.958,68c.19.312.343.349.393.1a1.743,1.743,0,0,0,0-.525,6.354,6.354,0,0,0-.12-.732,29.321,29.321,0,0,1-.766-6.483,4.74,4.74,0,0,0-.1-1.05A28.6,28.6,0,0,1,7.5,52.028C7.5,51.647,7.4,51.527,7.218,51.728Z" transform="translate(-5.861 -28.605)" fill="url(#linear-gradient-5)"/>
          <path id="Path_311" data-name="Path 311" d="M16.176,27.261a3.183,3.183,0,0,0-1.011.916A31.976,31.976,0,0,0,11.381,34.2a4.823,4.823,0,0,0-.363,1.086,29.085,29.085,0,0,0-.222,7.432c.035.363.157.46.311.258a3.556,3.556,0,0,0,.419-1.191A29.258,29.258,0,0,1,13.6,35.6a5.537,5.537,0,0,0,.357-.991,29.08,29.08,0,0,1,.93-3.5c.1-.291.207-.575.313-.866s.207-.589.334-.869c.246-.567.479-1.158.766-1.716C16.47,27.309,16.423,27.154,16.176,27.261Z" transform="translate(-8.29 -16.244)" fill="url(#linear-gradient-5)"/>
          <path id="Path_312" data-name="Path 312" d="M32.437,10.741a2.008,2.008,0,0,0-.558.1,4.083,4.083,0,0,0-.749.3,32.224,32.224,0,0,0-5.983,3.843,4.226,4.226,0,0,0-.791.825c-.37.518-.69,1.074-1.022,1.606-.168.264-.309.551-.462.821s-.3.545-.442.823l-.4.837-.2.415-.18.425-.353.842c-.114.28-.211.571-.316.853-.123.343-.055.483.171.366a1.821,1.821,0,0,0,.409-.334c.152-.157.312-.356.481-.563a29.843,29.843,0,0,1,4.518-4.712,4.525,4.525,0,0,0,.749-.743,28.685,28.685,0,0,1,5.082-5.293C32.682,10.909,32.705,10.747,32.437,10.741Z" transform="translate(-13.486 -7.894)" fill="url(#linear-gradient-5)"/>
          <path id="Path_313" data-name="Path 313" d="M55.659,5.176a3.163,3.163,0,0,0-1.35-.2,31.95,31.95,0,0,0-7.052.905,3.865,3.865,0,0,0-1.069.407,28.852,28.852,0,0,0-5.883,4.545c-.258.261-.254.418,0,.406a3.923,3.923,0,0,0,1.186-.431,29.267,29.267,0,0,1,6.093-2.336,4.055,4.055,0,0,0,.994-.348,28.71,28.71,0,0,1,6.86-2.6C55.809,5.434,55.9,5.3,55.659,5.176Z" transform="translate(-23.21 -4.973)" fill="url(#linear-gradient-5)"/>
          <path id="Path_314" data-name="Path 314" d="M81.586,9.071a2.033,2.033,0,0,0-.427-.376,5.186,5.186,0,0,0-.709-.381,31.4,31.4,0,0,0-6.767-2.19,4.835,4.835,0,0,0-1.141-.086,29.449,29.449,0,0,0-7.262,1.6c-.343.124-.408.267-.173.366a3.845,3.845,0,0,0,1.257.118,29.581,29.581,0,0,1,6.509.494,5.631,5.631,0,0,0,1.049.1,28.558,28.558,0,0,1,7.315.566C81.611,9.369,81.749,9.286,81.586,9.071Z" transform="translate(-35.798 -5.509)" fill="url(#linear-gradient-5)"/>
          <path id="Path_315" data-name="Path 315" d="M105.261,21.415a3.2,3.2,0,0,0-.7-1.168,32.342,32.342,0,0,0-5.179-4.872,4.847,4.847,0,0,0-.995-.566,29.281,29.281,0,0,0-7.247-1.662c-.363-.037-.481.063-.313.254a3.426,3.426,0,0,0,1.087.642,29.646,29.646,0,0,1,5.667,3.238,5.394,5.394,0,0,0,.9.542,30.044,30.044,0,0,1,3.258,1.587,31.089,31.089,0,0,1,3.114,2.052C105.157,21.693,105.319,21.677,105.261,21.415Z" transform="translate(-48.856 -9.109)" fill="url(#linear-gradient-5)"/>
          <path id="Path_316" data-name="Path 316" d="M122.145,41.133a2.028,2.028,0,0,0,.012-.567,3.882,3.882,0,0,0-.147-.792,31.965,31.965,0,0,0-2.611-6.617,4.074,4.074,0,0,0-.658-.936,31.044,31.044,0,0,0-2.817-2.518,30.138,30.138,0,0,0-3.031-2.073c-.313-.187-.464-.146-.392.1a1.781,1.781,0,0,0,.25.463c.063.09.135.185.215.28s.156.2.244.3a29.722,29.722,0,0,1,3.756,5.338,4.332,4.332,0,0,0,.584.878,28.477,28.477,0,0,1,4.2,6.012C121.933,41.34,122.086,41.395,122.145,41.133Z" transform="translate(-59.865 -16.39)" fill="url(#linear-gradient-5)"/>
        </g>
        <path id="Path_317" data-name="Path 317" d="M128.268,69.885a2.628,2.628,0,0,0,.316-.614,6.376,6.376,0,0,0,.26-.958,44.16,44.16,0,0,0,.9-8.8,5.917,5.917,0,0,0-.158-1.413,38.314,38.314,0,0,0-3.341-8.479c-.214-.389-.385-.432-.44-.123a2.429,2.429,0,0,0,.007.654,8.764,8.764,0,0,0,.138.91,40.568,40.568,0,0,1,.888,8.071,6.578,6.578,0,0,0,.114,1.307,39.488,39.488,0,0,1,1,9.074C127.949,69.989,128.07,70.138,128.268,69.885Z" transform="translate(-66.603 -27.422)" fill="url(#linear-gradient-5)"/>
      </g>
    </g>
    <path id="Path_318" data-name="Path 318" d="M67.756,54.641h0a.385.385,0,1,0,.769,0h0a.385.385,0,1,0-.769,0Zm-.089-2.147h0a.384.384,0,1,0,.765-.066h0a.384.384,0,1,0-.765.066ZM67.145,49.1h0a.383.383,0,0,0,.459.293.387.387,0,0,0,.29-.463h0a.384.384,0,0,0-.459-.292.388.388,0,0,0-.29.464Zm-.98-3.287h0a.383.383,0,0,0,.5.226.39.39,0,0,0,.223-.5h0a.383.383,0,0,0-.495-.225.388.388,0,0,0-.224.5ZM64.747,42.7h0a.382.382,0,0,0,.522.154.39.39,0,0,0,.152-.526h0a.381.381,0,0,0-.522-.154.389.389,0,0,0-.152.526ZM20.674,44.034h0a.389.389,0,0,0-.184-.517.382.382,0,0,0-.511.186h0a.389.389,0,0,0,.184.515.384.384,0,0,0,.511-.185Zm-1.232,3.2h0a.387.387,0,0,0-.253-.485.382.382,0,0,0-.48.254h0a.39.39,0,0,0,.252.487.384.384,0,0,0,.481-.256Zm-.78,3.341h0a.384.384,0,1,0-.759-.124h0a.384.384,0,1,0,.759.124Zm-.318,3.419h0a.384.384,0,1,0-.768-.019h0a.384.384,0,1,0,.768.019Zm.144,3.431h0a.384.384,0,1,0-.764.086h0a.384.384,0,1,0,.764-.086ZM19.1,60.8h0a.383.383,0,0,0-.465-.281.389.389,0,0,0-.279.471.383.383,0,0,0,.467.281A.389.389,0,0,0,19.1,60.8Zm1.064,3.261h0a.382.382,0,0,0-.5-.212.389.389,0,0,0-.21.505h0a.382.382,0,0,0,.5.212.389.389,0,0,0,.21-.505Zm1.5,3.078h0a.381.381,0,0,0-.525-.14.39.39,0,0,0-.139.53h0a.381.381,0,0,0,.525.14.388.388,0,0,0,.139-.53Zm1.905,2.845h0a.382.382,0,0,0-.539-.068.39.39,0,0,0-.067.544h0a.381.381,0,0,0,.539.068.391.391,0,0,0,.067-.544Zm2.272,2.554h0a.382.382,0,0,0-.544.008.39.39,0,0,0,.008.548h0a.38.38,0,0,0,.543-.007.391.391,0,0,0-.008-.549Zm2.6,2.218h0a.383.383,0,0,0-.537.083.391.391,0,0,0,.082.543h0a.383.383,0,0,0,.537-.083.391.391,0,0,0-.082-.543Zm31.356-1.769h0a.392.392,0,0,0-.022.549.383.383,0,0,0,.543.023h0a.391.391,0,0,0,.022-.549.382.382,0,0,0-.542-.023ZM62.125,70.5h0a.391.391,0,0,0,.052.547.381.381,0,0,0,.541-.054h0a.39.39,0,0,0-.052-.546.384.384,0,0,0-.541.053ZM64.1,67.7h0a.391.391,0,0,0,.125.534.383.383,0,0,0,.53-.127.39.39,0,0,0-.126-.533A.381.381,0,0,0,64.1,67.7Zm1.579-3.042h0a.388.388,0,0,0,.2.511.382.382,0,0,0,.506-.2h0a.39.39,0,0,0-.2-.511.383.383,0,0,0-.506.2Zm1.149-3.233h0a.389.389,0,0,0,.265.479.385.385,0,0,0,.474-.269h0a.389.389,0,0,0-.265-.479.383.383,0,0,0-.474.268Zm.694-3.361h0a.384.384,0,1,0,.76.106h0a.384.384,0,1,0-.76-.106Z" transform="translate(-5.933 -18.817)" fill="#310e39"/>
    <g id="Group_266" data-name="Group 266" transform="translate(31.842 13.534)">
      <path id="Path_319" data-name="Path 319" d="M64.374,22.514l1.665,3.374,3.723.541-2.695,2.623.636,3.707-3.329-1.747-3.329,1.747.637-3.707-2.694-2.623,3.722-.541Z" transform="translate(-58.75 -22.418)" fill="#040505"/>
      <path id="Path_320" data-name="Path 320" d="M63.892,22.32l1.665,3.374,3.723.541-2.695,2.623.636,3.707-3.329-1.747-3.329,1.747.637-3.707-2.694-2.623,3.722-.541Z" transform="translate(-58.506 -22.32)" fill="url(#linear-gradient-19)"/>
      <path id="Path_321" data-name="Path 321" d="M62.524,32.729a5.66,5.66,0,0,1-.046-.7,6.889,6.889,0,0,1,3.635-5.716L64.727,23.32l-1.5,3.247-3.361.521L62.3,29.611l-.575,3.568Z" transform="translate(-59.193 -22.826)" opacity="0.5" fill="url(#linear-gradient-20)"/>
    </g>
    <g id="Group_267" data-name="Group 267" transform="translate(32.85 25.748)">
      <path id="Path_322" data-name="Path 322" d="M68.123,47.07l.265,13.911a4.115,4.115,0,0,0,.1,1.078.754.754,0,0,0,.414.444,2.948,2.948,0,0,0,1.079.113l1.786-.034.047,2.467-10.946.208-.047-2.467,1.805-.035a3.733,3.733,0,0,0,1.218-.144.808.808,0,0,0,.393-.4,3.13,3.13,0,0,0,.112-1.152l-.189-9.918-3.559.068L60.55,48.74q1.522-.181,2.333-.362a26.459,26.459,0,0,0,2.581-.711,9.718,9.718,0,0,0,1.414-.573Z" transform="translate(-60.55 -47.07)" fill="#f0f0f0"/>
    </g>
    <g id="Group_268" data-name="Group 268" transform="translate(43.549 27.098)">
      <path id="Path_323" data-name="Path 323" d="M83.942,51.449h.322l.2.682L84,52.316a1,1,0,0,0-.332-.335.759.759,0,0,0-.4-.121.341.341,0,0,0-.194.044.127.127,0,0,0-.064.105.132.132,0,0,0,.045.1.558.558,0,0,0,.188.093l.674.24a2.124,2.124,0,0,1,.343.159.672.672,0,0,1,.246.234.627.627,0,0,1,.082.324.68.68,0,0,1-.255.546,1.122,1.122,0,0,1-.745.25,1.156,1.156,0,0,1-.666-.193l-.069.135h-.326l-.3-.8.463-.2a1.33,1.33,0,0,0,.429.428.914.914,0,0,0,.468.155.389.389,0,0,0,.223-.062.139.139,0,0,0,.069-.115.149.149,0,0,0-.054-.108.724.724,0,0,0-.238-.115l-.529-.184a1.482,1.482,0,0,1-.6-.33.6.6,0,0,1-.158-.416.658.658,0,0,1,.248-.52,1.036,1.036,0,0,1,.7-.24,1.145,1.145,0,0,1,.63.167Z" transform="translate(-82.229 -50.608)" fill="#f0f0f0"/>
      <path id="Path_324" data-name="Path 324" d="M88.673,49.806v.84h.789v.522h-.789v.853a1.368,1.368,0,0,0,.03.371.255.255,0,0,0,.114.131.479.479,0,0,0,.253.067.912.912,0,0,0,.5-.164v.524a1.922,1.922,0,0,1-.386.141,1.63,1.63,0,0,1-.374.04,1.307,1.307,0,0,1-.4-.057.861.861,0,0,1-.3-.164.6.6,0,0,1-.172-.227.99.99,0,0,1-.047-.348V51.169h-.368V50.7a.977.977,0,0,0,.336-.183.907.907,0,0,0,.224-.286,1.285,1.285,0,0,0,.116-.423Z" transform="translate(-84.91 -49.806)" fill="#f0f0f0"/>
    </g>
    <g id="Group_270" data-name="Group 270" transform="translate(24.889 45.812)">
      <g id="Group_269" data-name="Group 269" transform="translate(0)">
        <path id="Path_325" data-name="Path 325" d="M44.418,88.673l2.171-.041a4.946,4.946,0,0,1,1.365.1,1.649,1.649,0,0,1,.784.5,1.384,1.384,0,0,1,.323.915,1.441,1.441,0,0,1-.217.827,1.593,1.593,0,0,1-.668.606,3.345,3.345,0,0,1-1.255.2l-1,.019.026,1.409a1.307,1.307,0,0,0,.043.4.307.307,0,0,0,.133.157.8.8,0,0,0,.336.038l.189,0,.006.331-2.126.04-.006-.331.13,0a1.02,1.02,0,0,0,.369-.051.293.293,0,0,0,.142-.145,1,1,0,0,0,.038-.365l-.072-3.755a.978.978,0,0,0-.048-.35.262.262,0,0,0-.141-.129,1.15,1.15,0,0,0-.38-.034l-.13,0Zm1.445.4.043,2.3.848-.017a2.457,2.457,0,0,0,.9-.13.948.948,0,0,0,.42-.4,1.256,1.256,0,0,0,.157-.662,1.167,1.167,0,0,0-.21-.687.965.965,0,0,0-.543-.366,4.14,4.14,0,0,0-.924-.049Z" transform="translate(-44.418 -88.184)" fill="#f0f0f0"/>
        <path id="Path_326" data-name="Path 326" d="M54.563,88.484l2.129-.04.006.331-.2,0a.831.831,0,0,0-.323.05.282.282,0,0,0-.135.129.72.72,0,0,0-.038.3l.073,3.83a1.36,1.36,0,0,0,.026.315.163.163,0,0,0,.1.1,1.159,1.159,0,0,0,.319.018l.3-.006a2.4,2.4,0,0,0,.879-.164,1.811,1.811,0,0,0,.637-.441,3,3,0,0,0,.507-.85l.352.112L58.618,93.9l-3.951.075-.006-.331.173,0a.864.864,0,0,0,.338-.049.292.292,0,0,0,.131-.146.881.881,0,0,0,.04-.345l-.071-3.735a1.111,1.111,0,0,0-.05-.382.276.276,0,0,0-.129-.136.927.927,0,0,0-.351-.035l-.173,0Z" transform="translate(-49.556 -88.09)" fill="#f0f0f0"/>
        <path id="Path_327" data-name="Path 327" d="M66.146,88.249l.644-.012,1.795,4.558a1.171,1.171,0,0,0,.263.453.508.508,0,0,0,.346.105l.087,0,.006.331-1.954.037-.006-.331c.063-.006.124-.01.185-.011a.513.513,0,0,0,.247-.044.22.22,0,0,0,.111-.191,1.9,1.9,0,0,0-.118-.4l-.383-1.057-1.989.038-.406,1.2a.912.912,0,0,0-.062.257.237.237,0,0,0,.044.137.253.253,0,0,0,.114.086.644.644,0,0,0,.229.025c.071,0,.128,0,.173,0l.006.331-1.641.032-.006-.331a.854.854,0,0,0,.328-.051.445.445,0,0,0,.172-.149,1.989,1.989,0,0,0,.189-.427Zm-.635,3.083,1.7-.032-.889-2.345Z" transform="translate(-54.25 -87.985)" fill="#f0f0f0"/>
        <path id="Path_328" data-name="Path 328" d="M79.98,87.893l.283,0,.534,1.821-.364.11a6.254,6.254,0,0,0-.465-.842,1.858,1.858,0,0,0-.638-.543,1.7,1.7,0,0,0-.833-.189,1.78,1.78,0,0,0-.972.3,2.061,2.061,0,0,0-.708.851,2.713,2.713,0,0,0-.255,1.246,2.768,2.768,0,0,0,.305,1.259,2.1,2.1,0,0,0,.777.84,1.928,1.928,0,0,0,1.041.28,2.223,2.223,0,0,0,1.065-.321,2.958,2.958,0,0,0,.933-.86l.318.211a3.212,3.212,0,0,1-.516.624,3.129,3.129,0,0,1-.92.615,2.838,2.838,0,0,1-1.059.213,2.591,2.591,0,0,1-2.1-.909,2.82,2.82,0,0,1-.7-1.861,2.882,2.882,0,0,1,.339-1.453,2.749,2.749,0,0,1,.99-1.049,2.672,2.672,0,0,1,1.38-.409,2.437,2.437,0,0,1,.74.095,2.618,2.618,0,0,1,.7.335Z" transform="translate(-60.269 -87.778)" fill="#f0f0f0"/>
        <path id="Path_329" data-name="Path 329" d="M87.586,87.812l4.463-.085.543,1.435-.344.136a2.194,2.194,0,0,0-.295-.552,1.484,1.484,0,0,0-.376-.337,1.269,1.269,0,0,0-.437-.181,4.323,4.323,0,0,0-.791-.032l-1.332.025.038,2.011.663-.012a1.009,1.009,0,0,0,.552-.135.642.642,0,0,0,.253-.314,1.439,1.439,0,0,0,.046-.481V89.2l.386-.007L91,91.6l-.386.007,0-.209a1.358,1.358,0,0,0-.048-.4.585.585,0,0,0-.157-.227.577.577,0,0,0-.241-.144,1.669,1.669,0,0,0-.437-.031l-.663.012L89.1,92.4a1.278,1.278,0,0,0,.032.34.165.165,0,0,0,.086.087,1.079,1.079,0,0,0,.324.021l.824-.015a2.831,2.831,0,0,0,1.075-.186,1.866,1.866,0,0,0,.674-.52,2.949,2.949,0,0,0,.43-.761l.361.119-.581,1.731L87.69,93.3l-.006-.331.157,0a.98.98,0,0,0,.342-.041.344.344,0,0,0,.154-.168.9.9,0,0,0,.033-.34L88.3,88.638a.783.783,0,0,0-.058-.345.329.329,0,0,0-.18-.131,2.023,2.023,0,0,0-.469-.019Z" transform="translate(-66.282 -87.727)" fill="#f0f0f0"/>
      </g>
    </g>
    <g id="Group_272" data-name="Group 272" transform="translate(14.41 9.267)">
      <g id="Group_271" data-name="Group 271" transform="translate(0 0)">
        <path id="Path_330" data-name="Path 330" d="M23.343,39.5l2.007,1.24-.16.259-2.008-1.239Z" transform="translate(-23.183 -26.756)" fill="#141414"/>
        <path id="Path_331" data-name="Path 331" d="M26.581,37.531c-.162-.116-.3-.214-.438-.3l.157-.219.276.185.008-.011a.505.505,0,0,1-.028-.6.316.316,0,0,1,.059-.065l.236.169a.443.443,0,0,0-.07.079.431.431,0,0,0,.08.566.848.848,0,0,0,.109.095l.733.527-.177.247Z" transform="translate(-24.682 -25.249)" fill="#141414"/>
        <path id="Path_332" data-name="Path 332" d="M30.464,34.513l-.179-.119-.006.008a.635.635,0,0,1-.144.559.484.484,0,0,1-.707.079c-.312-.266-.247-.688.18-1.185l-.027-.022a.349.349,0,0,0-.548.039.841.841,0,0,0-.19.418l-.2-.078a1.059,1.059,0,0,1,.246-.521.6.6,0,0,1,.946-.041l.483.411a2.347,2.347,0,0,0,.328.242Zm-.688-.526c-.223.252-.425.581-.175.794a.272.272,0,0,0,.412-.03.422.422,0,0,0,.05-.5A.335.335,0,0,0,30,34.178Z" transform="translate(-25.949 -23.683)" fill="#141414"/>
        <path id="Path_333" data-name="Path 333" d="M32.167,30.606c-.121-.127-.224-.228-.327-.322l.2-.19.206.19,0,0a.627.627,0,0,1,.185-.618.616.616,0,0,1,.932.108l.7.732-.223.213-.675-.706c-.19-.2-.421-.292-.631-.091a.441.441,0,0,0-.081.514.485.485,0,0,0,.084.118l.7.736-.222.214Z" transform="translate(-27.568 -21.688)" fill="#141414"/>
        <path id="Path_334" data-name="Path 334" d="M38.928,25.351a1.082,1.082,0,0,0,.536-.185c.257-.177.313-.416.177-.612-.125-.181-.3-.213-.633-.133-.394.107-.7.078-.893-.2a.679.679,0,0,1,.263-.961,1.069,1.069,0,0,1,.5-.2l.073.253a.934.934,0,0,0-.433.162c-.265.183-.256.412-.164.544.125.181.305.189.644.107.417-.1.693-.057.891.228a.713.713,0,0,1-.294,1.029,1.219,1.219,0,0,1-.581.219Z" transform="translate(-30.691 -18.429)" fill="#141414"/>
        <path id="Path_335" data-name="Path 335" d="M44.664,22.091a.83.83,0,0,1-.3,1.2.806.806,0,0,1-1.133-.372.827.827,0,0,1,.3-1.195A.8.8,0,0,1,44.664,22.091Zm-1.17.666a.578.578,0,0,0,.766.322.676.676,0,0,0-.627-1.152A.576.576,0,0,0,43.494,22.757Z" transform="translate(-33.266 -17.694)" fill="#141414"/>
        <path id="Path_336" data-name="Path 336" d="M49.548,20.642a1.135,1.135,0,0,1-.408.283.805.805,0,0,1-1.118-.458.862.862,0,0,1,.478-1.188,1.026,1.026,0,0,1,.427-.089l.03.247a.71.71,0,0,0-.359.067.639.639,0,0,0,.5,1.175.874.874,0,0,0,.313-.228Z" transform="translate(-35.721 -16.468)" fill="#141414"/>
        <path id="Path_337" data-name="Path 337" d="M52.054,17.015a.181.181,0,0,1-.123.242.183.183,0,0,1-.237-.118.188.188,0,0,1,.119-.245A.183.183,0,0,1,52.054,17.015Zm.383,2.164-.553-1.6.292-.1.553,1.6Z" transform="translate(-37.617 -15.299)" fill="#141414"/>
        <path id="Path_338" data-name="Path 338" d="M56.525,18.489l-.077-.2-.01,0a.631.631,0,0,1-.437.375.483.483,0,0,1-.625-.339c-.1-.4.192-.705.825-.868l-.008-.034a.349.349,0,0,0-.472-.282.834.834,0,0,0-.394.233l-.119-.179a1.044,1.044,0,0,1,.5-.286.6.6,0,0,1,.8.507l.161.613a2.408,2.408,0,0,0,.129.385Zm-.263-.825c-.326.078-.681.233-.6.551a.272.272,0,0,0,.355.211.419.419,0,0,0,.324-.378.332.332,0,0,0-.007-.1Z" transform="translate(-39.403 -15.299)" fill="#141414"/>
        <path id="Path_339" data-name="Path 339" d="M59.781,14.525l.3-.055.442,2.448-.3.055Z" transform="translate(-41.72 -14.077)" fill="#141414"/>
        <path id="Path_340" data-name="Path 340" d="M66.308,13.993a3.526,3.526,0,0,1,.583-.069.975.975,0,0,1,.67.17.633.633,0,0,1,.226.486.693.693,0,0,1-.162.511.972.972,0,0,1-.71.288,1.054,1.054,0,0,1-.246-.011l.037.946-.3.011Zm.35,1.126a1.06,1.06,0,0,0,.254.014c.367-.014.584-.2.571-.528s-.238-.454-.575-.44a1.247,1.247,0,0,0-.286.036Z" transform="translate(-45.026 -13.8)" fill="#141414"/>
        <path id="Path_341" data-name="Path 341" d="M71.636,13.674l.307.019-.066,1.057h.007a.567.567,0,0,1,.234-.2.622.622,0,0,1,.32-.068c.227.014.582.177.545.761l-.063,1.007-.307-.019.06-.973c.017-.272-.07-.51-.36-.528a.444.444,0,0,0-.433.282.384.384,0,0,0-.03.146l-.064,1.021-.308-.02Z" transform="translate(-47.646 -13.674)" fill="#141414"/>
        <path id="Path_342" data-name="Path 342" d="M78.346,16.92a.828.828,0,0,1-.983.746.805.805,0,0,1-.654-1,.828.828,0,0,1,.979-.746A.8.8,0,0,1,78.346,16.92Zm-1.328-.208a.577.577,0,0,0,.4.728c.29.049.554-.187.617-.563.049-.283-.032-.666-.39-.726S77.072,16.395,77.018,16.712Z" transform="translate(-50.285 -14.807)" fill="#141414"/>
        <path id="Path_343" data-name="Path 343" d="M82.9,16.084l-.124.471.427.113-.06.227-.427-.113-.233.884c-.054.2-.027.334.139.378a.7.7,0,0,0,.179.026l-.046.227a.755.755,0,0,1-.275-.03.423.423,0,0,1-.288-.21.627.627,0,0,1,0-.457l.237-.894-.255-.067.06-.228.255.068.1-.393Z" transform="translate(-53.047 -14.895)" fill="#141414"/>
        <path id="Path_344" data-name="Path 344" d="M87.136,19.385a.829.829,0,0,1-1.1.561.806.806,0,0,1-.468-1.1.828.828,0,0,1,1.1-.562A.8.8,0,0,1,87.136,19.385Zm-1.271-.44a.577.577,0,0,0,.263.788c.277.1.578-.086.708-.445a.577.577,0,0,0-.257-.785C86.237,18.379,85.974,18.642,85.865,18.945Z" transform="translate(-54.748 -15.983)" fill="#141414"/>
        <path id="Path_345" data-name="Path 345" d="M91.93,20.748c-.059.108-.125.228-.215.414l-.428.885c-.169.35-.341.53-.553.591a.894.894,0,0,1-.643-.085,1.085,1.085,0,0,1-.446-.371L89.817,22a.951.951,0,0,0,.389.336.51.51,0,0,0,.748-.3l.082-.17-.006,0a.6.6,0,0,1-.608.021.756.756,0,0,1-.29-1.056.813.813,0,0,1,1.078-.478.563.563,0,0,1,.347.494l.006,0,.124-.224Zm-.577.463a.452.452,0,0,0-.2-.614c-.265-.127-.562,0-.732.358a.529.529,0,0,0,.186.765.449.449,0,0,0,.521-.1.518.518,0,0,0,.094-.137Z" transform="translate(-56.846 -17.024)" fill="#141414"/>
        <path id="Path_346" data-name="Path 346" d="M95.374,22.923c.1-.172.187-.321.259-.461l.231.138-.161.291.012.007a.508.508,0,0,1,.593-.078.326.326,0,0,1,.07.053l-.15.25a.425.425,0,0,0-.643.065.87.87,0,0,0-.085.116l-.464.776-.262-.156Z" transform="translate(-59.445 -18.125)" fill="#141414"/>
        <path id="Path_347" data-name="Path 347" d="M98.661,26.557l.1-.188-.008-.006a.631.631,0,0,1-.569-.1.482.482,0,0,1-.138-.7c.237-.333.664-.3,1.195.079l.02-.029a.348.348,0,0,0-.085-.542.844.844,0,0,0-.432-.154l.061-.206a1.052,1.052,0,0,1,.54.2.6.6,0,0,1,.121.938l-.368.515a2.478,2.478,0,0,0-.213.347Zm.465-.73c-.269-.2-.613-.374-.8-.107a.272.272,0,0,0,.066.408.421.421,0,0,0,.5.007.34.34,0,0,0,.072-.069Z" transform="translate(-61.056 -19.268)" fill="#141414"/>
        <path id="Path_348" data-name="Path 348" d="M101.9,27.994c.143-.163.254-.3.354-.424l.208.182-.181.228,0,0a.665.665,0,0,1,.669.15.766.766,0,0,1-.03,1.12.8.8,0,0,1-1.178.176.6.6,0,0,1-.216-.544l0,0-.607.691-.228-.2Zm-.069.54a.685.685,0,0,0-.073.1.475.475,0,0,0,.109.575c.244.215.562.14.818-.152a.551.551,0,0,0,.038-.805.491.491,0,0,0-.6-.021.529.529,0,0,0-.1.08Z" transform="translate(-62.441 -20.712)" fill="#141414"/>
        <path id="Path_349" data-name="Path 349" d="M107.355,30.361l.209.228-.779.716,0,.005a.567.567,0,0,1,.309.015.626.626,0,0,1,.277.172.616.616,0,0,1-.133.927l-.743.683-.208-.227.718-.659c.2-.185.3-.416.106-.63a.442.442,0,0,0-.507-.1.365.365,0,0,0-.123.083l-.753.692-.209-.227Z" transform="translate(-64.888 -22.126)" fill="#141414"/>
        <path id="Path_350" data-name="Path 350" d="M109.674,35.5l-.577.9c-.066.1-.147.212-.211.3l0,0c.1-.036.225-.085.348-.125l1-.33.2.26-1.243.357a2.582,2.582,0,0,1-1.2.174.838.838,0,0,1-.387-.182l.16-.217a.822.822,0,0,0,.282.124.929.929,0,0,0,.431,0,.218.218,0,0,0,.073-.024.278.278,0,0,0,.051-.066l.871-1.44Z" transform="translate(-65.941 -24.591)" fill="#141414"/>
      </g>
    </g>
    <g id="Group_274" data-name="Group 274" transform="translate(24.396 45.812)">
      <g id="Group_273" data-name="Group 273">
        <path id="Path_351" data-name="Path 351" d="M43.418,88.673l2.171-.041a4.946,4.946,0,0,1,1.365.1,1.65,1.65,0,0,1,.784.5,1.384,1.384,0,0,1,.323.915,1.441,1.441,0,0,1-.217.827,1.593,1.593,0,0,1-.668.606,3.345,3.345,0,0,1-1.255.2l-1,.019.026,1.409a1.307,1.307,0,0,0,.043.4.307.307,0,0,0,.133.157.8.8,0,0,0,.336.038l.189,0,.006.331-2.126.04-.006-.331.13,0a1.02,1.02,0,0,0,.369-.051.293.293,0,0,0,.142-.145,1,1,0,0,0,.038-.365l-.072-3.755a.978.978,0,0,0-.048-.35.262.262,0,0,0-.141-.129,1.15,1.15,0,0,0-.38-.034l-.13,0Zm1.445.4.043,2.3.848-.017a2.457,2.457,0,0,0,.9-.13.948.948,0,0,0,.42-.4,1.256,1.256,0,0,0,.157-.662,1.167,1.167,0,0,0-.21-.687.965.965,0,0,0-.543-.366,4.14,4.14,0,0,0-.924-.049Z" transform="translate(-43.418 -88.184)" fill="#040505"/>
        <path id="Path_352" data-name="Path 352" d="M53.563,88.484l2.129-.04.006.331-.2,0a.831.831,0,0,0-.323.05.282.282,0,0,0-.135.129.72.72,0,0,0-.038.3l.073,3.83a1.359,1.359,0,0,0,.026.315.163.163,0,0,0,.1.1,1.159,1.159,0,0,0,.319.018l.3-.006a2.4,2.4,0,0,0,.879-.164,1.811,1.811,0,0,0,.637-.441,3,3,0,0,0,.507-.85l.352.112L57.618,93.9l-3.951.075-.006-.331.173,0a.864.864,0,0,0,.338-.049.292.292,0,0,0,.131-.146.881.881,0,0,0,.04-.345l-.071-3.735a1.111,1.111,0,0,0-.05-.382.276.276,0,0,0-.129-.136.927.927,0,0,0-.351-.035l-.173,0Z" transform="translate(-48.556 -88.09)" fill="#040505"/>
        <path id="Path_353" data-name="Path 353" d="M65.146,88.249l.644-.012,1.795,4.558a1.171,1.171,0,0,0,.263.453.508.508,0,0,0,.346.105l.087,0,.006.331-1.954.037-.006-.331c.063-.006.124-.01.185-.011a.513.513,0,0,0,.247-.044.22.22,0,0,0,.111-.191,1.9,1.9,0,0,0-.118-.4l-.383-1.057-1.989.038-.406,1.2a.912.912,0,0,0-.062.257.237.237,0,0,0,.044.137.253.253,0,0,0,.114.086.644.644,0,0,0,.229.025c.071,0,.128,0,.173,0l.006.331-1.641.032-.006-.331a.854.854,0,0,0,.328-.051.445.445,0,0,0,.172-.149,1.989,1.989,0,0,0,.19-.427Zm-.635,3.083,1.7-.032-.889-2.345Z" transform="translate(-53.25 -87.985)" fill="#040505"/>
        <path id="Path_354" data-name="Path 354" d="M78.98,87.893l.283,0,.534,1.821-.364.11a6.254,6.254,0,0,0-.465-.842,1.858,1.858,0,0,0-.638-.543,1.7,1.7,0,0,0-.833-.189,1.78,1.78,0,0,0-.972.3,2.061,2.061,0,0,0-.708.851,2.713,2.713,0,0,0-.255,1.246,2.768,2.768,0,0,0,.305,1.259,2.1,2.1,0,0,0,.777.84,1.928,1.928,0,0,0,1.041.28,2.223,2.223,0,0,0,1.065-.321,2.958,2.958,0,0,0,.933-.86l.318.211a3.212,3.212,0,0,1-.516.624,3.129,3.129,0,0,1-.92.615,2.837,2.837,0,0,1-1.059.213,2.591,2.591,0,0,1-2.1-.909,2.82,2.82,0,0,1-.7-1.861,2.882,2.882,0,0,1,.339-1.453,2.749,2.749,0,0,1,.99-1.049,2.672,2.672,0,0,1,1.38-.409,2.437,2.437,0,0,1,.74.095,2.617,2.617,0,0,1,.7.335Z" transform="translate(-59.269 -87.778)" fill="#040505"/>
        <path id="Path_355" data-name="Path 355" d="M86.586,87.812l4.463-.085.543,1.435-.344.136a2.193,2.193,0,0,0-.295-.552,1.484,1.484,0,0,0-.376-.337,1.269,1.269,0,0,0-.437-.181,4.323,4.323,0,0,0-.791-.032l-1.332.025.038,2.011.663-.012a1.009,1.009,0,0,0,.552-.135.642.642,0,0,0,.253-.314,1.439,1.439,0,0,0,.046-.481V89.2l.386-.007L90,91.6l-.386.007,0-.209a1.358,1.358,0,0,0-.048-.4.585.585,0,0,0-.157-.227.577.577,0,0,0-.241-.144,1.669,1.669,0,0,0-.437-.031l-.663.012L88.1,92.4a1.278,1.278,0,0,0,.032.34.165.165,0,0,0,.086.087,1.079,1.079,0,0,0,.324.021l.824-.015a2.831,2.831,0,0,0,1.075-.186,1.866,1.866,0,0,0,.674-.52,2.949,2.949,0,0,0,.43-.761l.361.119-.581,1.731L86.69,93.3l-.006-.331.157,0a.98.98,0,0,0,.342-.041.344.344,0,0,0,.154-.168.9.9,0,0,0,.033-.34L87.3,88.638a.783.783,0,0,0-.058-.345.329.329,0,0,0-.18-.131,2.023,2.023,0,0,0-.469-.019Z" transform="translate(-65.282 -87.727)" fill="#040505"/>
      </g>
    </g>
    <g id="Group_276" data-name="Group 276" transform="translate(31.863 25.748)">
      <g id="Group_275" data-name="Group 275">
        <path id="Path_356" data-name="Path 356" d="M66.123,47.07l.265,13.911a4.114,4.114,0,0,0,.1,1.078.753.753,0,0,0,.414.444,2.948,2.948,0,0,0,1.079.113l1.786-.034.047,2.467-10.946.208-.047-2.467,1.805-.035a3.733,3.733,0,0,0,1.218-.144.808.808,0,0,0,.393-.4,3.13,3.13,0,0,0,.112-1.152l-.189-9.918-3.559.068L58.55,48.74q1.522-.181,2.333-.362a26.458,26.458,0,0,0,2.581-.711,9.719,9.719,0,0,0,1.414-.573Z" transform="translate(-58.55 -47.07)"/>
      </g>
    </g>
    <g id="Group_277" data-name="Group 277" transform="translate(43.056 27.098)">
      <path id="Path_357" data-name="Path 357" d="M82.942,51.449h.322l.2.682L83,52.316a1,1,0,0,0-.332-.335.759.759,0,0,0-.4-.121.341.341,0,0,0-.194.044.127.127,0,0,0-.064.105.132.132,0,0,0,.045.1.559.559,0,0,0,.188.093l.674.24a2.125,2.125,0,0,1,.343.159.672.672,0,0,1,.246.234.627.627,0,0,1,.082.324.68.68,0,0,1-.255.546,1.122,1.122,0,0,1-.745.25,1.156,1.156,0,0,1-.666-.193l-.069.135h-.326l-.3-.8.463-.2a1.33,1.33,0,0,0,.429.428.914.914,0,0,0,.468.155.389.389,0,0,0,.223-.062.139.139,0,0,0,.069-.115.149.149,0,0,0-.054-.108.724.724,0,0,0-.238-.115l-.529-.184a1.482,1.482,0,0,1-.6-.33.6.6,0,0,1-.158-.416.658.658,0,0,1,.248-.52,1.036,1.036,0,0,1,.7-.24,1.145,1.145,0,0,1,.63.167Z" transform="translate(-81.229 -50.608)" fill="#040505"/>
      <path id="Path_358" data-name="Path 358" d="M87.673,49.806v.84h.789v.522h-.789v.853a1.368,1.368,0,0,0,.03.371.255.255,0,0,0,.114.131.479.479,0,0,0,.253.067.912.912,0,0,0,.5-.164v.524a1.922,1.922,0,0,1-.386.141,1.63,1.63,0,0,1-.374.04,1.307,1.307,0,0,1-.4-.057.861.861,0,0,1-.3-.164.6.6,0,0,1-.172-.227.989.989,0,0,1-.047-.348V51.169h-.368V50.7a.977.977,0,0,0,.336-.183.908.908,0,0,0,.224-.286,1.286,1.286,0,0,0,.116-.423Z" transform="translate(-83.91 -49.806)" fill="#040505"/>
    </g>
  </g>
</svg>
