<svg xmlns="http://www.w3.org/2000/svg" xmlns:xlink="http://www.w3.org/1999/xlink" viewBox="0 0 64.5 60.359">
  <defs>
    <clipPath id="clip-path">
      <rect id="Rectangle_617" data-name="Rectangle 617" width="38.304" height="35.333" fill="none"/>
    </clipPath>
  </defs>
  <g id="Group_281" data-name="Group 281" transform="translate(-8.058 -15.478)">
    <g id="Group_282" data-name="Group 282" transform="translate(8.058 19.184)">
      <g id="Group_281-2" data-name="Group 281">
        <path id="Path_359" data-name="Path 359" d="M71.21,45.631l1.226-1.462-1.463-1.226,1.1-1.564-.729-.51-.835-.584.954-1.653-1.139-.658-.513-.3.5-1.08.3-.648-1.729-.808.652-1.794L67.743,32.7l.495-1.845L66.4,30.362l.33-1.879-1.878-.33.167-1.9-1.9-.167V24.176H61.205l-.141-1.6H19.552l-.14,1.6H17.5v1.907l-1.9.167.167,1.9-1.879.33.331,1.879-1.845.493.5,1.845-1.794.651.653,1.794L10,35.951l.3.648.5,1.08-.513.3-1.139.658.954,1.653-.834.584-.729.51,1.1,1.564L8.181,44.169l1.226,1.462L8.058,46.98l.619.619.73.73L8.181,49.791l1.462,1.227-1.1,1.563,1.563,1.094-.954,1.653,1.492.862.161.092-.5,1.08-.036.077L10,58.01l1.73.807-.653,1.794,1.794.653-.445,1.654-.051.187,1.845.5-.331,1.877,1.879.331-.167,1.9,1.491.132.41.035v1.909h1.908l.166,1.9,1.844-.162.057,0,.331,1.879.141-.025,1.737-.307.494,1.844,1.845-.494.651,1.794,1.794-.653.123.265.683,1.464.435-.2,1.294-.6.953,1.652,1.654-.955,1.094,1.564,1.563-1.1.308.369.919,1.093,1.462-1.225,1.349,1.349,1.348-1.349,1.463,1.225.914-1.09.009-.009.3-.352.008-.011,1.56,1.094,0,0,1.086-1.552L47,77.177l1.648.952.006,0,.948-1.643.005-.01,1.723.8,0,0,.8-1.718.005-.011,1.786.649.008,0,.647-1.783,0-.01,1.835.493.008,0,.491-1.834,0-.01,1.872.33.008,0,.331-1.879.385.033,1.508.132h.008l.166-1.893,0-.008h1.907V67.875l.422-.036,1.48-.13-.167-1.9,1.878-.331L66.4,63.6l1.843-.5-.05-.187-.444-1.654,1.793-.653-.652-1.794,1.729-.807-.268-.571-.035-.077-.5-1.08.16-.092,1.492-.862-.954-1.653,1.563-1.094-1.1-1.563,1.463-1.227L71.21,48.329l1.348-1.349Z" transform="translate(-8.058 -22.578)" fill="#310e39"/>
      </g>
    </g>
    <path id="Path_361" data-name="Path 361" d="M72.487,46.079h0a.418.418,0,1,0,.836,0h0a.418.418,0,1,0-.836,0Zm-.1-2.334h0a.418.418,0,1,0,.832-.073h0a.418.418,0,1,0-.832.073Zm-.566-3.69h0a.418.418,0,1,0,.815-.186h0a.418.418,0,0,0-.5-.318.423.423,0,0,0-.316.506ZM70.756,36.48h0a.417.417,0,0,0,.54.246.423.423,0,0,0,.242-.543h0A.416.416,0,0,0,71,35.938a.422.422,0,0,0-.243.542Zm-1.543-3.389h0a.416.416,0,0,0,.567.168.425.425,0,0,0,.166-.572h0a.414.414,0,0,0-.567-.167.422.422,0,0,0-.167.571Zm-1.991-3.144h0a.415.415,0,0,0,.585.087.425.425,0,0,0,.087-.59h0a.416.416,0,0,0-.584-.087.424.424,0,0,0-.087.59Zm-2.4-2.842h0a.415.415,0,0,0,.591.008.426.426,0,0,0,.007-.6h0a.416.416,0,0,0-.591-.007.424.424,0,0,0-.006.6Zm-2.761-2.484h0a.416.416,0,0,0,.586-.074.424.424,0,0,0-.075-.592.415.415,0,0,0-.586.074A.425.425,0,0,0,62.062,24.621Zm-3.073-2.079h0a.415.415,0,0,0,.571-.156.426.426,0,0,0-.153-.577.416.416,0,0,0-.571.156A.426.426,0,0,0,58.989,22.541Zm-28.118.854h0a.426.426,0,0,0,.119-.585.416.416,0,0,0-.579-.121h0a.424.424,0,0,0-.119.584.417.417,0,0,0,.579.122Zm-2.943,2.26h0a.424.424,0,0,0,.04-.6.414.414,0,0,0-.589-.04h0a.425.425,0,0,0-.039.6.415.415,0,0,0,.589.04ZM25.317,28.3h0a.426.426,0,0,0-.042-.6.414.414,0,0,0-.589.041h0a.426.426,0,0,0,.041.6.416.416,0,0,0,.589-.042Zm-2.228,2.98h0a.424.424,0,0,0-.121-.583.414.414,0,0,0-.578.123h0a.424.424,0,0,0,.121.584.416.416,0,0,0,.578-.124Zm-1.8,3.263h0a.424.424,0,0,0-.2-.562.416.416,0,0,0-.555.2h0a.423.423,0,0,0,.2.561.417.417,0,0,0,.556-.2Zm-1.34,3.482h0a.422.422,0,0,0-.275-.527.416.416,0,0,0-.523.277h0a.423.423,0,0,0,.275.528.417.417,0,0,0,.523-.278ZM19.1,41.659h0a.418.418,0,1,0-.824-.136h0a.418.418,0,1,0,.824.136Zm-.345,3.718h0a.418.418,0,1,0-.836-.021h0a.418.418,0,1,0,.836.021Zm.157,3.731h0a.418.418,0,1,0-.831.094h0a.416.416,0,0,0,.461.371.421.421,0,0,0,.37-.465Zm.66,3.675h0a.417.417,0,0,0-.506-.306.422.422,0,0,0-.3.512.417.417,0,0,0,.507.306A.422.422,0,0,0,19.571,52.782Zm1.157,3.545h0a.417.417,0,0,0-.545-.231.423.423,0,0,0-.228.55h0a.417.417,0,0,0,.545.231.424.424,0,0,0,.228-.55Zm1.629,3.348h0a.413.413,0,0,0-.57-.152.423.423,0,0,0-.151.576h0a.414.414,0,0,0,.571.152.421.421,0,0,0,.15-.576Zm2.072,3.092h0a.416.416,0,0,0-.586-.073.424.424,0,0,0-.073.592h0a.414.414,0,0,0,.586.073.425.425,0,0,0,.073-.591ZM26.9,65.546h0a.415.415,0,0,0-.591.008.425.425,0,0,0,.009.6h0a.413.413,0,0,0,.59-.008.424.424,0,0,0-.008-.6Zm36.921.488h0a.426.426,0,0,0-.025.6.416.416,0,0,0,.591.024h0a.424.424,0,0,0,.024-.6.415.415,0,0,0-.589-.025Zm2.541-2.713h0a.426.426,0,0,0,.057.595.416.416,0,0,0,.589-.058h0a.424.424,0,0,0-.057-.593.416.416,0,0,0-.588.057Zm2.151-3.038h0a.425.425,0,0,0,.136.581.418.418,0,0,0,.576-.138.424.424,0,0,0-.137-.58A.415.415,0,0,0,68.514,60.283Zm1.718-3.308h0a.423.423,0,0,0,.215.556.416.416,0,0,0,.55-.218h0a.424.424,0,0,0-.215-.555.417.417,0,0,0-.551.217Zm1.25-3.517h0a.422.422,0,0,0,.289.52.417.417,0,0,0,.515-.291h0A.423.423,0,0,0,72,53.167a.417.417,0,0,0-.515.292Zm.754-3.655h0a.418.418,0,1,0,.827.115h0a.418.418,0,1,0-.827-.115Z" transform="translate(-4.713 -2.999)" fill="#776d22"/>
    <g id="Group_287" data-name="Group 287" transform="translate(21.699 15.478)">
      <g id="Group_286" data-name="Group 286" transform="translate(0 0)">
        <g id="Group_285" data-name="Group 285" clip-path="url(#clip-path)">
          <g id="Group_284" data-name="Group 284">
            <g id="Group_283" data-name="Group 283" clip-path="url(#clip-path)">
              <path id="Path_362" data-name="Path 362" d="M41.547,19.318h-7.36a3.683,3.683,0,1,1,7.36,0" transform="translate(-34.187 -15.477)" fill="#9b0c19"/>
              <path id="Path_363" data-name="Path 363" d="M100.821,19.318h-7.36a3.683,3.683,0,1,1,7.36,0" transform="translate(-62.517 -15.477)" fill="#9b0c19"/>
              <path id="Path_364" data-name="Path 364" d="M68.5,26.908v-7.59a3.765,3.765,0,0,1,3.68-3.841H41.236a3.763,3.763,0,0,1,3.68,3.841v7.59l11.792,4.956Z" transform="translate(-37.556 -15.477)" fill="#dc001a"/>
            </g>
          </g>
        </g>
      </g>
    </g>
    <g id="Group_289" data-name="Group 289" transform="translate(21.699 15.478)">
      <g id="Group_288" data-name="Group 288" transform="translate(0 0)" clip-path="url(#clip-path)">
        <path id="Path_365" data-name="Path 365" d="M41.547,19.318h-7.36a3.683,3.683,0,1,1,7.36,0" transform="translate(-34.187 -15.477)" fill="#8b212a"/>
        <path id="Path_366" data-name="Path 366" d="M100.821,19.318h-7.36a3.683,3.683,0,1,1,7.36,0" transform="translate(-62.517 -15.477)" fill="#8b212a"/>
        <path id="Path_367" data-name="Path 367" d="M68.5,26.908v-7.59a3.765,3.765,0,0,1,3.68-3.841H41.236a3.763,3.763,0,0,1,3.68,3.841v7.59l11.792,4.956Z" transform="translate(-37.556 -15.477)" fill="#d42f37"/>
      </g>
    </g>
    <path id="Path_368" data-name="Path 368" d="M105.493,72.721l.7,1.413,1.56.226-1.129,1.1.267,1.553-1.395-.732-1.395.732.267-1.553-1.129-1.1,1.56-.226Z" transform="translate(-45.49 -27.359)" fill="#fff"/>
    <g id="Group_291" data-name="Group 291" transform="translate(25.485 33.357)">
      <g id="Group_290" data-name="Group 290">
        <path id="Path_369" data-name="Path 369" d="M45.978,56.689l0-.223q-.031-1.613-.4-1.906a3.361,3.361,0,0,0-1.825-.266l-2.3.044-.014-1.614a18.829,18.829,0,0,0,4.914-.728,7.951,7.951,0,0,0,3.193-1.812l1.648-.032L51.568,69.9a2.975,2.975,0,0,0,.766,2.372,4.669,4.669,0,0,0,2.739.515l.807-.016.03,1.613L41.8,74.656l-.031-1.613.892-.017a5.165,5.165,0,0,0,2.846-.612,2.868,2.868,0,0,0,.719-2.409Z" transform="translate(-41.439 -49.929)" fill="#fff"/>
        <path id="Path_370" data-name="Path 370" d="M75.545,74.612a6.4,6.4,0,0,1-3.061-.705A7.19,7.19,0,0,1,70,71.8a13.241,13.241,0,0,1-2.132-4.2,20.13,20.13,0,0,1-.192-10.52,13.591,13.591,0,0,1,2-4.329,7.376,7.376,0,0,1,2.413-2.2,6.271,6.271,0,0,1,2.989-.821,6.629,6.629,0,0,1,3.094.68A6.557,6.557,0,0,1,80.6,52.472a13.648,13.648,0,0,1,2.133,4.269,19.1,19.1,0,0,1,.8,5.238,15.941,15.941,0,0,1-2.146,9.045A6.891,6.891,0,0,1,75.545,74.612Zm2.218-12.489-.031-1.648q-.116-6.092-.668-7.627a1.99,1.99,0,0,0-3.879.074q-.494,1.554-.378,7.646l.031,1.648.031,1.648q.115,6.074.668,7.618a1.988,1.988,0,0,0,3.879-.074q.493-1.562.378-7.638Z" transform="translate(-53.688 -49.726)" fill="#fff"/>
      </g>
    </g>
    <g id="Group_293" data-name="Group 293" transform="translate(30.579 19.243)">
      <g id="Group_292" data-name="Group 292">
        <path id="Path_371" data-name="Path 371" d="M53.656,30.846V23.472L51.2,23.432l.078-.577H57.2l-.078.554-2.381.063v7.375Z" transform="translate(-51.198 -22.769)" fill="#f4f4f4"/>
        <path id="Path_372" data-name="Path 372" d="M71.2,26.74a5.592,5.592,0,0,1-.246,1.717,3.529,3.529,0,0,1-.729,1.3,3.168,3.168,0,0,1-1.214.827,4.6,4.6,0,0,1-1.7.289,4.387,4.387,0,0,1-1.693-.3,2.979,2.979,0,0,1-1.163-.839,3.481,3.481,0,0,1-.668-1.3,6.247,6.247,0,0,1-.215-1.7,6.017,6.017,0,0,1,.219-1.685,3.309,3.309,0,0,1,.679-1.276,2.983,2.983,0,0,1,1.17-.807,4.57,4.57,0,0,1,1.686-.281,4.676,4.676,0,0,1,1.694.281,3.165,3.165,0,0,1,1.209.807,3.411,3.411,0,0,1,.726,1.276A5.487,5.487,0,0,1,71.2,26.74Zm-1.163,0a5.807,5.807,0,0,0-.157-1.4,3.053,3.053,0,0,0-.487-1.085,2.258,2.258,0,0,0-.843-.7,2.757,2.757,0,0,0-1.221-.25,4.71,4.71,0,0,0-1.147.133,2.05,2.05,0,0,0-.843.4,1.119,1.119,0,0,0-.289.437,3.469,3.469,0,0,0-.187.675,7.635,7.635,0,0,0-.1.843q-.031.457-.031.948a7.168,7.168,0,0,0,.128,1.4,3.266,3.266,0,0,0,.425,1.112,2.087,2.087,0,0,0,.792.733,2.6,2.6,0,0,0,1.237.266,4.845,4.845,0,0,0,1.206-.129,2.181,2.181,0,0,0,.886-.465,1.047,1.047,0,0,0,.289-.441,4.172,4.172,0,0,0,.2-.695A7.227,7.227,0,0,0,70,27.669Q70.034,27.209,70.034,26.74Z" transform="translate(-57.112 -22.69)" fill="#f4f4f4"/>
        <path id="Path_373" data-name="Path 373" d="M82.252,27.2l.226-.039a6.58,6.58,0,0,0,.8-.184,1.906,1.906,0,0,0,.659-.339,1.579,1.579,0,0,0,.449-.605,2.462,2.462,0,0,0,.168-.987,1.975,1.975,0,0,0-.14-.78,1.417,1.417,0,0,0-.39-.539,1.606,1.606,0,0,0-.609-.312,2.9,2.9,0,0,0-.788-.1q-.226,0-.39.012c-.109.008-.245.019-.406.035V30.8H80.745V22.852q.492-.039,1.085-.063t1.163-.023a4.173,4.173,0,0,1,1.209.156,2.347,2.347,0,0,1,.851.441,1.753,1.753,0,0,1,.5.694,2.478,2.478,0,0,1,.164.925,2.584,2.584,0,0,1-.2,1.007,2.1,2.1,0,0,1-.6.811,2.993,2.993,0,0,1-1.038.542,4.974,4.974,0,0,1-1.494.2h-.07Z" transform="translate(-65.32 -22.726)" fill="#f4f4f4"/>
      </g>
    </g>
    <path id="Path_374" data-name="Path 374" d="M36.444,72.73l.7,1.413,1.559.227-1.129,1.1.267,1.554-1.395-.734-1.4.734.267-1.554-1.129-1.1,1.56-.227Z" transform="translate(-12.488 -27.364)" fill="#fff"/>
  </g>
</svg>
