<svg xmlns="http://www.w3.org/2000/svg" viewBox="0 0 18.409 21">
  <path id="Path_176" data-name="Path 176" d="M635.954,1219.621h.3a.769.769,0,0,1,.586.253.88.88,0,0,1,.236.622,1.272,1.272,0,0,1-.227.7,1.157,1.157,0,0,1-.543.473q-.385.157-1.1.4a29.455,29.455,0,0,1-7.333,1.051,25.575,25.575,0,0,1-4.3-.359,19.54,19.54,0,0,1-3.124-.727l-1.015-.35a1.136,1.136,0,0,1-.542-.481,1.316,1.316,0,0,1-.227-.709.883.883,0,0,1,.236-.622.77.77,0,0,1,.586-.253h.3l2.064-3.028,1.1-5.722a4.805,4.805,0,0,1,1.33-2.45,5.117,5.117,0,0,1,2.52-1.453l-.315-.56a.615.615,0,0,1,.053-.561.572.572,0,0,1,.507-.227h1.645a.637.637,0,0,1,.508.183.515.515,0,0,1,.052.516l-.315.648a4.977,4.977,0,0,1,2.521,1.444,4.865,4.865,0,0,1,1.329,2.459l1.1,5.722Zm-8.085,5.179a14.728,14.728,0,0,1-1.8-.1,3.107,3.107,0,0,0,.7,1.391,1.405,1.405,0,0,0,2.206,0,2.981,2.981,0,0,0,.682-1.391A14.317,14.317,0,0,1,627.869,1224.8Z" transform="translate(-618.664 -1205.621)" fill="#403d58"/>
</svg>
