<svg xmlns="http://www.w3.org/2000/svg" viewBox="0 0 15.349 17.429">
  <g id="Group_255" data-name="Group 255" transform="translate(-122.455 -63.374)">
    <path id="Path_205" data-name="Path 205" d="M122.457,75.284c0-1.362-.005-2.724,0-4.087a7.712,7.712,0,0,1,1.587-4.812,7.655,7.655,0,0,1,13.643,5.861,7.659,7.659,0,0,1-7.6,6.445q-1.625.013-3.251,0a.866.866,0,0,0-.615.212c-.631.532-1.281,1.041-1.915,1.569a1.082,1.082,0,0,1-1.854-.882Q122.455,77.435,122.457,75.284Z" transform="translate(0)" fill-rule="evenodd"/>
    <g id="Group_201" data-name="Group 201" transform="translate(128.496 65.764)">
      <path id="Path_206" data-name="Path 206" d="M168.226,90.571v-.377c.9-.087,1.005-.174,1.005-1.16V86.192c0-.889-.048-.957-.9-1.1v-.338a10.719,10.719,0,0,0,2.146-.541v4.823c0,.976.1,1.054,1.015,1.16v.377Zm.754-8.294a.79.79,0,0,1,.793-.793.758.758,0,0,1,.754.793.767.767,0,0,1-.773.764A.793.793,0,0,1,168.98,82.278Z" transform="translate(-168.226 -81.485)" fill="#fff"/>
    </g>
  </g>
</svg>
