<svg xmlns="http://www.w3.org/2000/svg" viewBox="0 0 32.47 31.417">
  <g id="Group_101" data-name="Group 101" transform="translate(1997.248 -1273.933)">
    <path id="Path_95" data-name="Path 95" d="M-1822,1308.352a8.549,8.549,0,0,1-3.632,2.481,15.241,15.241,0,0,1-5.424.693c-3.411.082-6.826.072-10.238.021a13.684,13.684,0,0,1-6.247-1.194,8.306,8.306,0,0,1-3.667-3.787c-.92-1.815-.9-3.76-.989-5.7-.045-.991-.036-1.983-.052-2.974.022-2.463.02-4.927.074-7.389a12.959,12.959,0,0,1,.741-4.739,8.212,8.212,0,0,1,7.314-5.3,121.426,121.426,0,0,1,15.365-.113,9.234,9.234,0,0,1,5.953,2.25,8.122,8.122,0,0,1,2.752,5.447,105.062,105.062,0,0,1,.189,12.145,20.4,20.4,0,0,1-.369,4.5A8.291,8.291,0,0,1-1822,1308.352Zm-27.285-11.543a53.8,53.8,0,0,0,.156,6.542,5.738,5.738,0,0,0,1.34,3.239,6.253,6.253,0,0,0,4.724,2.033c3.728.208,7.461.115,11.192.1a19.449,19.449,0,0,0,4.617-.36,5.19,5.19,0,0,0,3.553-2.7,4.553,4.553,0,0,0,.79-2.361,16.669,16.669,0,0,0,.167-2.971c.032-3.925.149-7.852-.155-11.769a5.451,5.451,0,0,0-4.275-5.135,19.422,19.422,0,0,0-4.795-.4c-3.852-.023-7.707-.138-11.554.151a5.7,5.7,0,0,0-5.62,5.348,26.428,26.428,0,0,0-.136,2.735C-1849.329,1293.118-1849.385,1294.964-1849.285,1296.809Z" transform="translate(-145 -6.235)" fill="#6f819f" fill-rule="evenodd"/>
    <path id="Path_96" data-name="Path 96" d="M-1812.835,1316.357c-.67.577-1.226,1.271-1.954,1.8a8.481,8.481,0,0,1-12.877-3.964,12.134,12.134,0,0,1-.383-1.944,7.916,7.916,0,0,1,2.947-6.706,8.427,8.427,0,0,1,13.294,3.731,7.687,7.687,0,0,1-.864,6.66A.929.929,0,0,0-1812.835,1316.357Zm-2.6-1.541a4.865,4.865,0,0,0,1.113-3.294,5.375,5.375,0,0,0-6.652-4.946,5.206,5.206,0,0,0-4.145,4.946,4.314,4.314,0,0,0,.245,1.754,5.111,5.111,0,0,0,4.178,3.533A5.244,5.244,0,0,0-1815.438,1314.816Z" transform="translate(-161.282 -22.023)" fill="#6f819f" fill-rule="evenodd"/>
    <path id="Path_97" data-name="Path 97" d="M-1780.184,1300.753a1.888,1.888,0,0,1-1.92-1.854,1.833,1.833,0,0,1,1.924-1.869,1.848,1.848,0,0,1,1.927,1.89A1.865,1.865,0,0,1-1780.184,1300.753Z" transform="translate(-192.212 -17.584)" fill="#6f819f" fill-rule="evenodd"/>
  </g>
</svg>
