<svg xmlns="http://www.w3.org/2000/svg" viewBox="0 0 29.752 24.563">
  <g id="Group_198" data-name="Group 198" transform="translate(-182.915 -263.555)">
    <path id="Path_201" data-name="Path 201" d="M181.8,272.634a8.938,8.938,0,0,1,9.218-9.075,9.015,9.015,0,0,1,8.521,6.921c.068.3.238.382.506.459a7.385,7.385,0,0,1,.31,14.248,12.169,12.169,0,0,1-2.628.325c-.942.053-1.89.014-2.835.011-.759,0-1.194-.355-1.191-.957s.463-.98,1.2-.987c1.163-.011,2.327.009,3.49-.012a5.4,5.4,0,0,0,5.144-4.1,5.47,5.47,0,0,0-4.562-6.8c-.794-.117-.991-.312-1.144-1.133a7.109,7.109,0,0,0-14.04-.079,10.674,10.674,0,0,0-.078,1.788c.024.915-.274,1.263-1.189,1.288a4.525,4.525,0,0,0-.4,9.039c1.4.029,2.8.011,4.2.014.127,0,.255,0,.382,0a1.124,1.124,0,0,1,1.2,1.011c-.012.571-.488.934-1.237.936-1.491,0-2.981.011-4.472,0a6.43,6.43,0,0,1-.99-12.755C181.388,272.733,181.579,272.683,181.8,272.634Z" transform="translate(7)" fill="#fff" fill-rule="evenodd"/>
    <path id="Path_202" data-name="Path 202" d="M211.036,302.237c-.655.585-1.2,1.084-1.761,1.573a.985.985,0,1,1-1.291-1.437c1.064-.962,2.123-1.929,3.188-2.891a1.054,1.054,0,0,1,1.706-.011c1.064.962,2.14,1.913,3.165,2.915a1.5,1.5,0,0,1,.461,1.018.943.943,0,0,1-1.594.526c-.453-.362-.866-.773-1.3-1.161-.172-.155-.35-.3-.626-.544v.673c0,2.67,0,5.34,0,8.009a.947.947,0,0,1-.515.942.812.812,0,0,1-1.048-.138,1.934,1.934,0,0,1-.373-1.074c-.031-2.561-.016-5.122-.016-7.682Z" transform="translate(-14.246 -23.856)" fill="#fff" fill-rule="evenodd"/>
  </g>
</svg>
