<svg xmlns="http://www.w3.org/2000/svg" viewBox="0 0 171.621 157.912" >
  <path id="path21"
    d="M667.339,423.269c0-1.788-.605-1.8-2.084-2.541a2.1,2.1,0,0,1-.685-3.011c.652-.87.685-1.906.685-3.469a18.463,18.463,0,0,0-.228-3.7c-.2-1.024-.981-2.786-2.311-2.786-2.1,0-2-.177-1.158-1.854.356-.71,1.857-2.4,1.857-3.469a17.183,17.183,0,0,0-.226-3.469,9.977,9.977,0,0,0-1.157-3.24c-.417-.834-.542-2.381-1.172-3.014-1.36-1.356-.648-1.11-.226-2.785a7.448,7.448,0,0,0,.226-3.469c-.522-1.3.1-1.771.471-3.24.635-2.544-.662-.931-1.626-2.541-.233-.383-.455-.771-.686-1.154l.457-.226-25.7,1.38c-1.7,0-1.718-.591-2.312-1.414-.089-.209-.232-2.527-.685-2.751-1.531-.768-2.162-2.26-3.011-2.77a5.992,5.992,0,0,1-2.54-3.011l-1.857-3.712c-.467-.933-1.656-2.881-3.012-2.541-2.226.556-3.086-.771-4.624-1.157s-3.223-1.857-4.868-1.857c-1.407,0-2.059,1.185-3.012.229-.562-.563-.356-3.168-1.611-2.54-.283.14-4.335,1.615-3.7-.929.215-.861-1.1-2.275-2.083-2.768a3.3,3.3,0,0,1-2.086-2.557c-.239-1.2-.18-2.52-.472-3.7-.071-.284-.318-3.469-.455-3.469-1.185,0-2.049,1.68-2.787,1.384a11.59,11.59,0,0,1-3.466-2.083,6.97,6.97,0,0,0-3.014-1.855c-.983-.246-1.684-2.086-2.769-2.086s-3.513.417-4.169-.455c-1.256-1.677-.915-1.4-2.085-.226-.431.433-2.227,2.284-3.236,2.082-1.351-.27-2.922-2.519-3.919-2.551a54.411,54.411,0,0,0,2.99,7.78c3.647,7.3-4.688,12.5-8.856,18.758-1.565,2.6,2.083,4.168,4.168,4.691-.522,1.041,1.561,1.563,1.042,1.563-4.691,1.041-6.775,4.687-9.9,6.251-4.166,2.608.522,7.294,2.084,10.943a15.444,15.444,0,0,1-8.335,1.045c-3.127-1.045-5.21-4.172-8.337-5.735-5.21-2.6-9.9-6.773-15.631-8.337-10.237-2.325-20.885,2.828-26.386,11.751,2.615,1.284,4.589-1.321,8.522-.011s-.656,6.572-1.97,9.2,3.294,15.133,4.607,17.765,11.838,9.858,11.838,12.489-7.246,8.55-7.246,11.841-3.944,3.95-10.52,7.9c-3.615,2.168-9.413,10.691-14.344,18.481a4.878,4.878,0,0,0,1.53-.066c2.958-.986,11.168-2.3,13.141-5.259s9.546-8.236,12.506-10.211a6.756,6.756,0,0,1,2.432-.97c7.068-4.895,15.761-2.787,23.083,1.605,1.566,1.044,3.649,3.127,2.606,5.733-2.085,3.124-7.816,5.21-5.211,8.856,3.127,5.213,5.732,10.421,11.985,12.507,5.211,1.563,10.942-1.564,16.152.522,3.13,1.041,4.169,5.21,6.254,7.813a4.813,4.813,0,0,0,4.69,1.567c10.423-2.086,24.491-6.254,30.222,4.168,3.647-4.168,9.9-3.649,13.026-1.044,2.084,1.565,3.127,4.17,5.211,5.732,1.563.522,3.127-1.042,4.689-2.6,1.751-2.1,4.451-2.083,7.139-2a7.136,7.136,0,0,1-.287-2.28v-3.469a11.31,11.31,0,0,1,.458-3.243,8.607,8.607,0,0,1,2.083-3.011,11,11,0,0,0,2.083-2.311,3.3,3.3,0,0,1,3.014-1.614c1.008,0,3.909.5,4.4-.472.525-1.049.513-1.925-.471-3.24a10.147,10.147,0,0,0-2.314-2.541c-.328-.249-3.09-2.507-2.538-2.785.484-.239,4.151-.192,4.4-.682.659-1.321-.044-2.452,1.612-2.785,1.724-.345,2.083-.325,2.083-2.311,0-1.243.359-3.373,1.158-4.172,1.027-1.027.928-2.121.928-3.7v-3.941c0-1.513.629-2.044.929-3.24a12.99,12.99,0,0,0,.7-3.469c0-1.243-2.853-2.492-1.857-3.24,0-.635-.385-3.48.229-3.939,1.237-.932,2.084-.672,2.084-2.541,0-1.71,1.261-2.249,1.626-3.712.389-1.544.139-2.451,1.158-3.469C667.512,425.649,667.339,424.655,667.339,423.269Z"
    transform="translate(-495.732 -339.465)" fill="#59095e" />
</svg>