<svg xmlns="http://www.w3.org/2000/svg" viewBox="0 0 78.334 31.224">
  <g id="Group_5" data-name="Group 5" transform="translate(-1143 -19)">
    <path id="Path_2" data-name="Path 2" d="M99.494,106.294a8.24,8.24,0,0,1,8.241-8.24h0V94.9h0a11.391,11.391,0,0,0-11.393,11.391Z" transform="translate(1046.658 -75.897)" fill="#333"/>
    <rect id="Rectangle_4" data-name="Rectangle 4" width="31.791" height="3.124" transform="translate(1154.164 19)" fill="#333"/>
    <path id="Path_3" data-name="Path 3" d="M138.094,116.347a4.563,4.563,0,0,0-8.282,0,4.934,4.934,0,0,0-.31.67,5.428,5.428,0,0,1,8.9,0A4.833,4.833,0,0,0,138.094,116.347Z" transform="translate(1029.433 -85.659)" fill="#333"/>
    <g id="Group_2" data-name="Group 2" transform="translate(1154.86 24.702)">
      <path id="Path_4" data-name="Path 4" d="M222.214,115.433h.011a8.238,8.238,0,0,1-16.473-.186h-.006v-2.959H202.6V125.07h3.145V123.1a11.388,11.388,0,0,0,19.634-7.67h0v-3.145h-3.17Z" transform="translate(-163.397 -109.629)" fill="#333"/>
      <rect id="Rectangle_5" data-name="Rectangle 5" width="3.18" height="12.868" transform="translate(63.294 2.573)" fill="#333"/>
      <rect id="Rectangle_6" data-name="Rectangle 6" width="3.115" height="12.781" transform="translate(34.189 2.659)" fill="#333"/>
      <path id="Path_5" data-name="Path 5" d="M222.164,147.813a2.3,2.3,0,0,0-2.127,1.426,2.3,2.3,0,1,0,0,1.746,2.3,2.3,0,1,0,2.127-3.172Z" transform="translate(-170.156 -128.082)" fill="#333"/>
      <path id="Path_6" data-name="Path 6" d="M150.454,112.559h0c0,.013,0,.025,0,.038v.024h0a8.235,8.235,0,0,1-8.228,7.992v.035H136.17a8.523,8.523,0,1,0-6.622,3.16q.439,0,.865-.043l-.005.008h12.047v-.013a11.388,11.388,0,0,0,11.159-11.2h0v-3.145h-3.165Zm-26.959,2.722a6.055,6.055,0,1,1,6.054,6.055A6.055,6.055,0,0,1,123.495,115.281Z" transform="translate(-121.022 -106.755)" fill="#333"/>
    </g>
    <path id="Path_7" data-name="Path 7" d="M185.41,110.479a1.57,1.57,0,1,1-1.57-1.57A1.57,1.57,0,0,1,185.41,110.479Z" transform="translate(1002.024 -83.172)" fill="#333"/>
    <path id="Path_8" data-name="Path 8" d="M195.261,110.479a1.57,1.57,0,1,1-1.57-1.57A1.57,1.57,0,0,1,195.261,110.479Z" transform="translate(996.907 -83.172)" fill="#333"/>
    <path id="Path_9" data-name="Path 9" d="M205.734,110.479a1.57,1.57,0,1,1-1.57-1.57A1.569,1.569,0,0,1,205.734,110.479Z" transform="translate(991.466 -83.172)" fill="#333"/>
    <path id="Path_10" data-name="Path 10" d="M246.568,110.479a1.57,1.57,0,1,1-1.57-1.57A1.57,1.57,0,0,1,246.568,110.479Z" transform="translate(970.256 -83.172)" fill="#333"/>
    <path id="Path_11" data-name="Path 11" d="M255.933,110.479a1.57,1.57,0,1,1-1.57-1.57A1.57,1.57,0,0,1,255.933,110.479Z" transform="translate(965.392 -83.172)" fill="#333"/>
    <path id="Path_12" data-name="Path 12" d="M185.41,96.479a1.57,1.57,0,1,1-1.57-1.57A1.57,1.57,0,0,1,185.41,96.479Z" transform="translate(1002.024 -75.9)" fill="#333"/>
    <path id="Path_13" data-name="Path 13" d="M99.482,115.96a1.57,1.57,0,1,1-1.57-1.57A1.57,1.57,0,0,1,99.482,115.96Z" transform="translate(1046.658 -86.019)" fill="#333"/>
    <path id="Path_14" data-name="Path 14" d="M195.261,137.188a1.57,1.57,0,1,1-1.57-1.57A1.57,1.57,0,0,1,195.261,137.188Z" transform="translate(996.907 -97.045)" fill="#333"/>
    <path id="Path_15" data-name="Path 15" d="M205.734,137.188a1.57,1.57,0,1,1-1.57-1.57A1.569,1.569,0,0,1,205.734,137.188Z" transform="translate(991.466 -97.045)" fill="#333"/>
    <path id="Path_16" data-name="Path 16" d="M255.933,137.188a1.57,1.57,0,1,1-1.57-1.57A1.57,1.57,0,0,1,255.933,137.188Z" transform="translate(965.392 -97.045)" fill="#333"/>
    <path id="Path_17" data-name="Path 17" d="M114.645,110.412a1.57,1.57,0,1,1-1.57-1.57A1.57,1.57,0,0,1,114.645,110.412Z" transform="translate(1038.782 -83.137)" fill="#333"/>
    <g id="Group_4" data-name="Group 4" transform="translate(1144.733 44.224)">
      <text id="IRASOGRAPHY" transform="translate(-1 5)" fill="#333" font-size="6" font-family="Helvetica-Bold, Helvetica" font-weight="700" letter-spacing="0.07em"><tspan x="0" y="0">IRASOGRAPHY</tspan></text>
    </g>
  </g>
</svg>
