<svg xmlns="http://www.w3.org/2000/svg"  viewBox="0 0 26.786 26.762">
  <path id="Path_164" data-name="Path 164" d="M339.886,269.476a8.969,8.969,0,0,1-2.194-.91l-.117-.07-3.1,1.89a13.049,13.049,0,0,1-2.45-2.45l1.867-3.126-.07-.117a10.594,10.594,0,0,1-.887-2.17l-.046-.14-3.524-.887a12.029,12.029,0,0,1-.14-1.727,14.9,14.9,0,0,1,.14-1.7l3.524-.887.046-.14a11.013,11.013,0,0,1,.887-2.17l.07-.117-1.867-3.126a15.239,15.239,0,0,1,2.45-2.45l3.1,1.89.117-.07a9.738,9.738,0,0,1,2.194-.91l.117-.023.886-3.546q1.1-.117,1.727-.117a14.007,14.007,0,0,1,1.727.117l.886,3.546.14.023a10.526,10.526,0,0,1,2.17.91l.117.07,3.126-1.89a13.363,13.363,0,0,1,2.427,2.45l-1.866,3.126.07.117a12.072,12.072,0,0,1,.91,2.17l.023.14,3.547.887a16.317,16.317,0,0,1,.117,1.7,14.14,14.14,0,0,1-.117,1.727l-3.547.887-.023.14a11.729,11.729,0,0,1-.91,2.17l-.07.117,1.866,3.126a14.513,14.513,0,0,1-2.427,2.45l-3.126-1.89-.117.07a10.27,10.27,0,0,1-2.17.91l-.14.047-.886,3.523q-1.1.117-1.727.117a14,14,0,0,1-1.727-.117L340,269.523ZM337.6,259.77a5.019,5.019,0,1,0,1.47-3.523A4.832,4.832,0,0,0,337.6,259.77Z" transform="translate(-329.223 -246.401)" fill="#021b89" opacity="0.34"/>
</svg>
