<svg xmlns="http://www.w3.org/2000/svg" xmlns:xlink="http://www.w3.org/1999/xlink" viewBox="0 0 21.535 24.854">
  <defs>
    <linearGradient id="linear-gradient" x1="0.901" y1="0.854" x2="0" y2="0.102" gradientUnits="objectBoundingBox">
      <stop offset="0" stop-color="#2bffe6"/>
      <stop offset="0.225" stop-color="#35ffe7"/>
      <stop offset="1" stop-color="#f6f6f6"/>
    </linearGradient>
  </defs>
  <path id="Path_280" data-name="Path 280" d="M329.4,665.72c.265-.467.482-.853.7-1.237.832-1.45,1.655-2.906,2.506-4.345a.652.652,0,0,0-.03-.8c-.971-1.482-1.92-2.979-2.875-4.471-.088-.137-.168-.279-.293-.488.223-.01.394-.025.564-.025,1.94,0,3.88-.01,5.82.007a.656.656,0,0,0,.684-.418c.912-1.763,1.847-3.512,2.8-5.322.12.187.22.331.307.482.969,1.7,1.942,3.389,2.9,5.094a.645.645,0,0,0,.694.395c1.8-.093,3.61-.154,5.415-.224.164-.006.328,0,.551,0-.083.17-.138.3-.209.425-.971,1.657-1.926,3.324-2.929,4.962a.919.919,0,0,0,.013,1.177c.975,1.419,1.9,2.874,2.842,4.315.09.137.174.279.32.515h-.592c-1.973,0-3.946.008-5.919-.007a.647.647,0,0,0-.682.423c-.8,1.632-1.632,3.251-2.453,4.873-.066.131-.135.26-.232.445-.11-.169-.2-.293-.277-.424-1.021-1.723-2.051-3.442-3.051-5.178a.665.665,0,0,0-.708-.38c-1.755.08-3.511.142-5.267.208C329.838,665.726,329.673,665.72,329.4,665.72Z" transform="translate(-328.545 -647.627)" stroke="rgba(0,0,0,0)" stroke-width="1" fill-rule="evenodd" fill="url(#linear-gradient)"/>
</svg>
