<svg xmlns="http://www.w3.org/2000/svg" xmlns:xlink="http://www.w3.org/1999/xlink" viewBox="0 0 69.866 80.798">
  <defs>
    <linearGradient id="linear-gradient" x1="0.043" y1="0.102" x2="1" y2="1" gradientUnits="objectBoundingBox">
      <stop offset="0" stop-color="#fff100"/>
      <stop offset="0.131" stop-color="#fff100"/>
      <stop offset="1" stop-color="#faaf40"/>
    </linearGradient>
    <linearGradient id="linear-gradient-2" x1="0.043" y1="0.102" x2="0.748" y2="0.716" gradientUnits="objectBoundingBox">
      <stop offset="0.131" stop-color="#fff100"/>
      <stop offset="1" stop-color="#faaf40"/>
    </linearGradient>
  </defs>
  <g id="Group_220" data-name="Group 220" transform="translate(-311.357 -158.324)">
    <path id="Path_240" data-name="Path 240" d="M380.093,217.046c-3.331-5.092-6.6-10.23-10.041-15.242a3.246,3.246,0,0,1-.045-4.159c3.544-5.784,6.918-11.672,10.348-17.526.254-.431.445-.9.74-1.5-.788,0-1.369-.019-1.947,0-6.377.249-12.756.463-19.129.792a2.281,2.281,0,0,1-2.452-1.394c-3.365-6.023-6.805-12-10.227-18-.3-.534-.66-1.04-1.083-1.7-3.378,6.393-6.682,12.575-9.9,18.8a2.322,2.322,0,0,1-2.417,1.476c-6.852-.062-13.705-.032-20.558-.026-.6,0-1.2.052-1.992.088.441.737.724,1.239,1.034,1.725,3.375,5.27,6.728,10.556,10.157,15.794a2.3,2.3,0,0,1,.105,2.831c-3,5.085-5.912,10.226-8.85,15.349-.778,1.357-1.544,2.72-2.48,4.37.952,0,1.532.019,2.112,0,6.2-.235,12.4-.451,18.6-.735a2.347,2.347,0,0,1,2.5,1.343c3.533,6.131,7.17,12.2,10.777,18.291.274.463.588.9.978,1.5.342-.655.586-1.112.82-1.573,2.9-5.734,5.831-11.45,8.665-17.214a2.285,2.285,0,0,1,2.409-1.5c6.97.054,13.94.026,20.909.026h2.091C380.706,218.03,380.411,217.531,380.093,217.046Zm-10.465-4.009c-4.953,0-9.906.02-14.859-.019a1.626,1.626,0,0,0-1.712,1.063c-2.014,4.1-4.1,8.159-6.157,12.233-.166.328-.34.653-.583,1.118-.278-.424-.5-.736-.7-1.064-2.563-4.326-5.148-8.64-7.658-13a1.668,1.668,0,0,0-1.778-.955c-4.406.2-8.814.356-13.22.522-.412.016-.825,0-1.5,0,.665-1.171,1.209-2.14,1.762-3.1,2.087-3.641,4.154-7.294,6.289-10.907a1.637,1.637,0,0,0-.075-2.012c-2.437-3.722-4.82-7.478-7.218-11.223-.22-.345-.421-.7-.735-1.225.56-.026.988-.062,1.415-.063,4.87,0,9.739-.025,14.609.019a1.649,1.649,0,0,0,1.718-1.049c2.288-4.424,4.635-8.817,7.036-13.359.3.47.552.83.769,1.209,2.431,4.257,4.876,8.507,7.267,12.788a1.621,1.621,0,0,0,1.743.99c4.529-.234,9.061-.386,13.593-.563.411-.016.823,0,1.383,0-.209.428-.346.759-.526,1.065-2.437,4.161-4.835,8.345-7.353,12.455a2.307,2.307,0,0,0,.031,2.956c2.448,3.562,4.769,7.212,7.135,10.831.226.345.436.7.8,1.293Z" fill-rule="evenodd" fill="url(#linear-gradient)"/>
    <path id="Path_241" data-name="Path 241" d="M359.234,235.728c.341-.6.621-1.1.9-1.594,1.072-1.869,2.133-3.744,3.229-5.6a.839.839,0,0,0-.038-1.033c-1.251-1.911-2.474-3.839-3.705-5.762-.113-.177-.216-.36-.377-.629.287-.013.507-.032.727-.032,2.5,0,5-.013,7.5.01a.847.847,0,0,0,.882-.539c1.174-2.271,2.38-4.526,3.612-6.858.154.241.284.426.4.621,1.248,2.185,2.5,4.367,3.73,6.565a.833.833,0,0,0,.895.508c2.325-.12,4.651-.2,6.978-.289.211-.008.423,0,.71,0-.107.22-.177.389-.27.547-1.251,2.136-2.482,4.283-3.775,6.394a1.184,1.184,0,0,0,.016,1.517c1.257,1.828,2.448,3.7,3.663,5.56.116.177.223.359.412.664h-.763c-2.542,0-5.085.01-7.628-.01a.834.834,0,0,0-.879.546c-1.034,2.1-2.1,4.188-3.161,6.28-.085.168-.174.335-.3.574-.142-.217-.257-.377-.357-.546-1.316-2.221-2.643-4.436-3.932-6.673a.856.856,0,0,0-.913-.49c-2.262.1-4.525.183-6.787.268C359.793,235.735,359.581,235.728,359.234,235.728Z" transform="translate(-25.688 -29.707)" fill-rule="evenodd" fill="url(#linear-gradient-2)"/>
  </g>
</svg>
