<svg xmlns="http://www.w3.org/2000/svg" xmlns:xlink="http://www.w3.org/1999/xlink" viewBox="0 0 41.434 47.916">
  <defs>
    <linearGradient id="linear-gradient" x1="0.043" y1="0.102" x2="0.748" y2="0.716" gradientUnits="objectBoundingBox">
      <stop offset="0.131" stop-color="#fff100"/>
      <stop offset="1" stop-color="#faaf40"/>
    </linearGradient>
  </defs>
  <path id="Path_237" data-name="Path 237" d="M329.4,684.443c.555-.977,1.009-1.786,1.47-2.59,1.743-3.038,3.467-6.088,5.249-9.1a1.366,1.366,0,0,0-.062-1.68c-2.034-3.1-4.022-6.24-6.024-9.366-.184-.287-.351-.585-.613-1.022.467-.022.824-.052,1.182-.052,4.064,0,8.128-.022,12.192.015a1.375,1.375,0,0,0,1.433-.875c1.909-3.692,3.869-7.358,5.872-11.149.251.392.461.693.642,1.009,2.029,3.553,4.069,7.1,6.065,10.671a1.351,1.351,0,0,0,1.454.826c3.78-.2,7.562-.322,11.344-.469.343-.014.687,0,1.154,0-.174.357-.289.634-.439.89-2.034,3.472-4.035,6.964-6.137,10.394a1.924,1.924,0,0,0,.027,2.466c2.043,2.972,3.979,6.02,5.954,9.039.188.288.364.584.67,1.079H369.6c-4.133,0-8.267.017-12.4-.016a1.356,1.356,0,0,0-1.428.887c-1.681,3.419-3.42,6.809-5.139,10.209-.139.274-.284.545-.486.933-.231-.354-.418-.613-.58-.888-2.139-3.61-4.3-7.211-6.391-10.847a1.393,1.393,0,0,0-1.484-.8c-3.677.168-7.355.3-11.033.436C330.313,684.454,329.968,684.443,329.4,684.443Z" transform="translate(-329.404 -648.62)" fill-rule="evenodd" fill="url(#linear-gradient)"/>
</svg>
