<svg xmlns="http://www.w3.org/2000/svg" viewBox="0 0 48 48.222">
  <g id="Group_219" data-name="Group 219" transform="translate(-320.686 -422.304)">
    <path id="Path_238" data-name="Path 238" d="M320.686,451.091c.989-.549,1.8-1.006,2.621-1.456,3.089-1.7,6.169-3.414,9.279-5.072a1.375,1.375,0,0,0,.826-1.476c-.121-3.734-.186-7.47-.269-11.2-.008-.343,0-.687.009-1.2.412.226.736.387,1.042.574,3.494,2.126,7,4.24,10.468,6.4a1.384,1.384,0,0,0,1.69,0c3.575-2.172,7.179-4.3,10.887-6.5.01.469.034.837.023,1.2-.117,4.116-.223,8.232-.379,12.347a1.361,1.361,0,0,0,.816,1.472c3.35,1.813,6.667,3.685,9.994,5.54.3.169.592.358.994.6-.337.215-.58.394-.843.535-3.567,1.917-7.116,3.87-10.719,5.716a1.936,1.936,0,0,0-1.269,2.132c.2,3.625.265,7.258.38,10.887.011.346.006.692.011,1.278l-1.065-.65c-3.551-2.165-7.112-4.316-10.647-6.51a1.365,1.365,0,0,0-1.692.013c-3.235,2.057-6.506,4.06-9.764,6.08-.263.162-.529.319-.907.547-.014-.425-.038-.746-.033-1.067.053-4.223.086-8.446.191-12.669a1.4,1.4,0,0,0-.857-1.462c-3.247-1.781-6.476-3.6-9.709-5.406C321.461,451.576,321.171,451.386,320.686,451.091Z" transform="translate(0 -5.335)" fill="#ffd500" fill-rule="evenodd"/>
    <path id="Path_239" data-name="Path 239" d="M329.4,458.355c.559-.984,1.016-1.8,1.48-2.607,1.754-3.058,3.489-6.126,5.282-9.161a1.375,1.375,0,0,0-.063-1.69c-2.047-3.125-4.048-6.281-6.062-9.426-.185-.289-.354-.589-.617-1.028.47-.022.83-.053,1.189-.053,4.09,0,8.18-.022,12.27.015a1.384,1.384,0,0,0,1.442-.88c1.922-3.716,3.893-7.4,5.909-11.22.253.4.464.7.646,1.015,2.042,3.575,4.1,7.145,6.1,10.739a1.36,1.36,0,0,0,1.463.832c3.8-.2,7.611-.324,11.417-.472.345-.014.691,0,1.162,0-.176.359-.29.638-.442.9-2.047,3.494-4.061,7.008-6.176,10.461a1.936,1.936,0,0,0,.027,2.481c2.056,2.992,4,6.059,5.992,9.1.19.289.366.588.674,1.086h-1.247c-4.16,0-8.32.017-12.479-.016a1.365,1.365,0,0,0-1.438.893c-1.691,3.44-3.441,6.853-5.172,10.274-.14.275-.286.549-.489.939-.233-.355-.421-.617-.584-.894-2.153-3.633-4.323-7.256-6.432-10.916a1.4,1.4,0,0,0-1.493-.8c-3.7.17-7.4.3-11.1.439C330.319,458.367,329.972,458.355,329.4,458.355Z" transform="translate(-5.55)" fill="#fff100" fill-rule="evenodd"/>
  </g>
</svg>
