<svg xmlns="http://www.w3.org/2000/svg" viewBox="0 0 32.221 31.692">
  <path id="Path_98" data-name="Path 98" d="M-1705.471,1311.512a15.707,15.707,0,0,1-10.61-4.1,15.1,15.1,0,0,1-5.261-10.495,15.217,15.217,0,0,1,4.452-12.209,15.844,15.844,0,0,1,9.7-4.752,12.754,12.754,0,0,1,2.061-.135h.025c6.653.364,11.489,3.435,14.374,9.125a14.477,14.477,0,0,1,1.539,7.288,15.417,15.417,0,0,1-4.01,9.877,15.849,15.849,0,0,1-10.445,5.3A17.83,17.83,0,0,1-1705.471,1311.512Zm.059-29.077a12.029,12.029,0,0,0-1.457.121,13.288,13.288,0,0,0-8.139,3.973,12.7,12.7,0,0,0-3.726,10.187,12.565,12.565,0,0,0,4.378,8.734,13.242,13.242,0,0,0,10.441,3.366,13.311,13.311,0,0,0,8.771-4.45,12.868,12.868,0,0,0,3.339-8.244,11.889,11.889,0,0,0-1.259-5.987c-2.464-4.862-6.445-7.379-12.171-7.7Zm1.25,22.022a2.135,2.135,0,0,1-1.342-.518,4.385,4.385,0,0,1-1.162-1.568l-.086-.177c-.395-.812-.8-1.653-1.192-2.491a1.137,1.137,0,0,0-.565-.618q-1.391-.652-2.789-1.289a5.166,5.166,0,0,1-1.239-.749,2.253,2.253,0,0,1-.895-2.009,2.235,2.235,0,0,1,1.315-1.739,10.776,10.776,0,0,1,1.424-.577l.07-.024q4.333-1.519,8.674-3.023l.031-.011a4.543,4.543,0,0,1,1.615-.326h.005a2,2,0,0,1,1.536.613,2.007,2.007,0,0,1,.48,1.611,10.094,10.094,0,0,1-.6,2.372c-.044.129-.089.257-.131.385-.914,2.728-1.9,5.486-2.919,8.2a3.585,3.585,0,0,1-.709,1.207A2.074,2.074,0,0,1-1704.161,1304.457Zm-6.157-9.091.105.049q1.411.643,2.815,1.3a3.752,3.752,0,0,1,1.827,1.884c.38.818.784,1.648,1.173,2.451l.086.178c.013.028.027.056.042.084.973-2.591,1.908-5.223,2.78-7.825.045-.135.092-.271.139-.407.112-.326.222-.642.307-.951l-.015.005-.033.011q-4.337,1.5-8.667,3.021l-.072.025C-1710,1295.25-1710.161,1295.307-1710.319,1295.366Zm-.576-.364Z" transform="translate(1721.396 -1279.819)" fill="#6f819f"/>
</svg>
